<?xml version="1.0" encoding="UTF-8"?>
<svg width="1366px" height="1000px" viewBox="0 0 1366 1000" version="1.1" xmlns="http://www.w3.org/2000/svg" xmlns:xlink="http://www.w3.org/1999/xlink">
    <!-- Generator: Sketch 58 (84663) - https://sketch.com -->
    <title>Group 22</title>
    <desc>Created with Sketch.</desc>
    <g id="Page-1" stroke="none" stroke-width="1" fill="none" fill-rule="evenodd">
        <g id="ixda-web-copy-4" transform="translate(0.000000, 114.000000)">
            <path d="M-594.904941,1635.20497 C-247.470578,1592.33793 -115.304788,1440.57808 20.6114917,1388.53034 C190.664023,1323.41048 260.000365,1330.67795 300.489173,1223.36559 C343.382304,1109.68077 307.89353,918.299995 -37.2942354,881.532565 C-94.7663476,875.410963 -376.228921,882.311113 -437.808848,882.311113 C-869.248808,882.311113 -1219,1041.24867 -1219,1237.30807 C-1219,1433.36748 -1013.51543,1686.85383 -594.904941,1635.20497 Z" id="Oval" fill="#AFEC65"></path>
            <g id="Group-22" transform="translate(60.000000, 178.000000)">
                <g transform="translate(1240.500000, 465.500000) rotate(-46.000000) translate(-1240.500000, -465.500000) translate(965.000000, 399.000000)" id="Group-21" stroke="#AFEC65" stroke-linecap="round" stroke-width="5">
                    <g>
                        <path d="M5.68434189e-14,23.4603862 L17.6101115,14.4437913 C34.8122839,5.63606628 55.5298161,7.4006401 70.9946476,18.990711 C86.0843215,30.2996211 106.720411,30.6739387 122.210288,19.9197104 L125.640404,17.5382676 C140.611551,7.14417991 160.61197,7.73336024 174.945301,18.990711 L176.137618,19.9271532 C189.467665,30.3965281 208.333525,30.0046268 221.217298,18.990711 C234.506832,7.62992416 253.499846,5.84018219 268.677691,14.5184426 L284.316704,23.4603862 L284.316704,23.4603862" id="Path-2"></path>
                        <path d="M280.656462,16.3489649 L283.942965,14.6309798 C301.045397,5.69086406 321.762074,7.36710842 337.204698,18.9405359 C352.294372,30.249446 372.930461,30.6237636 388.420338,19.8695352 L391.850454,17.4880925 C406.821602,7.09400475 426.82202,7.68318509 441.155351,18.9405359 L442.347668,19.876978 C455.677715,30.3463529 474.543575,29.9544516 487.427348,18.9405359 C500.716882,7.579749 519.709896,5.79000703 534.887741,14.4682675 L550.526755,23.4102111 L550.526755,23.4102111" id="Path-2" transform="translate(415.591608, 18.940536) scale(1, -1) translate(-415.591608, -18.940536) "></path>
                    </g>
                    <g transform="translate(0.000000, 19.000000)">
                        <path d="M5.68434189e-14,23.4603862 L17.6101115,14.4437913 C34.8122839,5.63606628 55.5298161,7.4006401 70.9946476,18.990711 C86.0843215,30.2996211 106.720411,30.6739387 122.210288,19.9197104 L125.640404,17.5382676 C140.611551,7.14417991 160.61197,7.73336024 174.945301,18.990711 L176.137618,19.9271532 C189.467665,30.3965281 208.333525,30.0046268 221.217298,18.990711 C234.506832,7.62992416 253.499846,5.84018219 268.677691,14.5184426 L284.316704,23.4603862 L284.316704,23.4603862" id="Path-2"></path>
                        <path d="M280.656462,16.3489649 L283.942965,14.6309798 C301.045397,5.69086406 321.762074,7.36710842 337.204698,18.9405359 C352.294372,30.249446 372.930461,30.6237636 388.420338,19.8695352 L391.850454,17.4880925 C406.821602,7.09400475 426.82202,7.68318509 441.155351,18.9405359 L442.347668,19.876978 C455.677715,30.3463529 474.543575,29.9544516 487.427348,18.9405359 C500.716882,7.579749 519.709896,5.79000703 534.887741,14.4682675 L550.526755,23.4102111 L550.526755,23.4102111" id="Path-2" transform="translate(415.591608, 18.940536) scale(1, -1) translate(-415.591608, -18.940536) "></path>
                    </g>
                    <g transform="translate(0.000000, 38.000000)">
                        <path d="M5.68434189e-14,23.4603862 L17.6101115,14.4437913 C34.8122839,5.63606628 55.5298161,7.4006401 70.9946476,18.990711 C86.0843215,30.2996211 106.720411,30.6739387 122.210288,19.9197104 L125.640404,17.5382676 C140.611551,7.14417991 160.61197,7.73336024 174.945301,18.990711 L176.137618,19.9271532 C189.467665,30.3965281 208.333525,30.0046268 221.217298,18.990711 C234.506832,7.62992416 253.499846,5.84018219 268.677691,14.5184426 L284.316704,23.4603862 L284.316704,23.4603862" id="Path-2"></path>
                        <path d="M280.656462,16.3489649 L283.942965,14.6309798 C301.045397,5.69086406 321.762074,7.36710842 337.204698,18.9405359 C352.294372,30.249446 372.930461,30.6237636 388.420338,19.8695352 L391.850454,17.4880925 C406.821602,7.09400475 426.82202,7.68318509 441.155351,18.9405359 L442.347668,19.876978 C455.677715,30.3463529 474.543575,29.9544516 487.427348,18.9405359 C500.716882,7.579749 519.709896,5.79000703 534.887741,14.4682675 L550.526755,23.4102111 L550.526755,23.4102111" id="Path-2" transform="translate(415.591608, 18.940536) scale(1, -1) translate(-415.591608, -18.940536) "></path>
                    </g>
                    <g transform="translate(0.000000, 57.000000)">
                        <path d="M5.68434189e-14,23.4603862 L17.6101115,14.4437913 C34.8122839,5.63606628 55.5298161,7.4006401 70.9946476,18.990711 C86.0843215,30.2996211 106.720411,30.6739387 122.210288,19.9197104 L125.640404,17.5382676 C140.611551,7.14417991 160.61197,7.73336024 174.945301,18.990711 L176.137618,19.9271532 C189.467665,30.3965281 208.333525,30.0046268 221.217298,18.990711 C234.506832,7.62992416 253.499846,5.84018219 268.677691,14.5184426 L284.316704,23.4603862 L284.316704,23.4603862" id="Path-2"></path>
                        <path d="M280.656462,16.3489649 L283.942965,14.6309798 C301.045397,5.69086406 321.762074,7.36710842 337.204698,18.9405359 C352.294372,30.249446 372.930461,30.6237636 388.420338,19.8695352 L391.850454,17.4880925 C406.821602,7.09400475 426.82202,7.68318509 441.155351,18.9405359 L442.347668,19.876978 C455.677715,30.3463529 474.543575,29.9544516 487.427348,18.9405359 C500.716882,7.579749 519.709896,5.79000703 534.887741,14.4682675 L550.526755,23.4102111 L550.526755,23.4102111" id="Path-2" transform="translate(415.591608, 18.940536) scale(1, -1) translate(-415.591608, -18.940536) "></path>
                    </g>
                    <g transform="translate(0.000000, 76.000000)">
                        <path d="M5.68434189e-14,23.4603862 L17.6101115,14.4437913 C34.8122839,5.63606628 55.5298161,7.4006401 70.9946476,18.990711 C86.0843215,30.2996211 106.720411,30.6739387 122.210288,19.9197104 L125.640404,17.5382676 C140.611551,7.14417991 160.61197,7.73336024 174.945301,18.990711 L176.137618,19.9271532 C189.467665,30.3965281 208.333525,30.0046268 221.217298,18.990711 C234.506832,7.62992416 253.499846,5.84018219 268.677691,14.5184426 L284.316704,23.4603862 L284.316704,23.4603862" id="Path-2"></path>
                        <path d="M280.656462,16.3489649 L283.942965,14.6309798 C301.045397,5.69086406 321.762074,7.36710842 337.204698,18.9405359 C352.294372,30.249446 372.930461,30.6237636 388.420338,19.8695352 L391.850454,17.4880925 C406.821602,7.09400475 426.82202,7.68318509 441.155351,18.9405359 L442.347668,19.876978 C455.677715,30.3463529 474.543575,29.9544516 487.427348,18.9405359 C500.716882,7.579749 519.709896,5.79000703 534.887741,14.4682675 L550.526755,23.4102111 L550.526755,23.4102111" id="Path-2" transform="translate(415.591608, 18.940536) scale(1, -1) translate(-415.591608, -18.940536) "></path>
                    </g>
                    <g transform="translate(0.000000, 95.000000)">
                        <path d="M5.68434189e-14,23.4603862 L17.6101115,14.4437913 C34.8122839,5.63606628 55.5298161,7.4006401 70.9946476,18.990711 C86.0843215,30.2996211 106.720411,30.6739387 122.210288,19.9197104 L125.640404,17.5382676 C140.611551,7.14417991 160.61197,7.73336024 174.945301,18.990711 L176.137618,19.9271532 C189.467665,30.3965281 208.333525,30.0046268 221.217298,18.990711 C234.506832,7.62992416 253.499846,5.84018219 268.677691,14.5184426 L284.316704,23.4603862 L284.316704,23.4603862" id="Path-2"></path>
                        <path d="M280.656462,16.3489649 L283.942965,14.6309798 C301.045397,5.69086406 321.762074,7.36710842 337.204698,18.9405359 C352.294372,30.249446 372.930461,30.6237636 388.420338,19.8695352 L391.850454,17.4880925 C406.821602,7.09400475 426.82202,7.68318509 441.155351,18.9405359 L442.347668,19.876978 C455.677715,30.3463529 474.543575,29.9544516 487.427348,18.9405359 C500.716882,7.579749 519.709896,5.79000703 534.887741,14.4682675 L550.526755,23.4102111 L550.526755,23.4102111" id="Path-2" transform="translate(415.591608, 18.940536) scale(1, -1) translate(-415.591608, -18.940536) "></path>
                    </g>
                </g>
                <circle id="Oval" fill="#AFEC65" cx="156" cy="156" r="156"></circle>
            </g>
        </g>
    </g>
</svg>