<?xml version="1.0" encoding="UTF-8"?>
<svg width="28px" height="28px" viewBox="0 0 28 28" version="1.1" xmlns="http://www.w3.org/2000/svg" xmlns:xlink="http://www.w3.org/1999/xlink">
    <!-- Generator: Sketch 58 (84663) - https://sketch.com -->
    <title>Group 19</title>
    <desc>Created with Sketch.</desc>
    <g id="Page-1" stroke="none" stroke-width="1" fill="none" fill-rule="evenodd">
        <g id="ixda-web-copy" transform="translate(-166.000000, -1522.000000)">
            <g id="Group-18-Copy" transform="translate(83.000000, 1521.000000)">
                <g id="Group-19" transform="translate(82.142136, 0.142136)">
                    <rect id="Rectangle" fill="#55C3C3" transform="translate(15.000000, 15.000000) rotate(45.000000) translate(-15.000000, -15.000000) " x="5" y="5" width="20" height="20" rx="2"></rect>
                    <path d="M14,10 C14.2163702,10 14.4269038,10.0701779 14.6,10.2 L19.9333333,14.2 C20.3751611,14.5313708 20.4647042,15.1581722 20.1333333,15.6 C20.0764791,15.6758057 20.009139,15.7431458 19.9333333,15.8 L14.6,19.8 C14.1581722,20.1313708 13.5313708,20.0418278 13.2,19.6 C13.0701779,19.4269038 13,19.2163702 13,19 L13,17 L10,17 C9.44771525,17 9,16.5522847 9,16 L9,14 C9,13.4477153 9.44771525,13 10,13 L13,13 L13,11 C13,10.4477153 13.4477153,10 14,10 Z" id="Combined-Shape" fill="#FFFFFF"></path>
                </g>
            </g>
        </g>
    </g>
</svg>