<?xml version="1.0" encoding="UTF-8"?>
<svg width="29px" height="29px" viewBox="0 0 29 29" version="1.1" xmlns="http://www.w3.org/2000/svg" xmlns:xlink="http://www.w3.org/1999/xlink">
    <!-- Generator: Sketch 58 (84663) - https://sketch.com -->
    <title>fa-brands:instagram</title>
    <desc>Created with Sketch.</desc>
    <g id="Page-2" stroke="none" stroke-width="1" fill="none" fill-rule="evenodd">
        <g id="iPhone-8" transform="translate(-158.000000, -202.000000)" fill-rule="nonzero">
            <g id="fa-brands:instagram" transform="translate(158.000000, 201.000000)">
                <g id="Icon" transform="translate(0.000000, 1.000000)" fill="#FFFFFF">
                    <path d="M14.06875,7.8125 C10.09375,7.8125 6.8875,11.01875 6.8875,14.99375 C6.8875,18.96875 10.09375,22.175 14.06875,22.175 C18.04375,22.175 21.25,18.96875 21.25,14.99375 C21.25,11.01875 18.04375,7.8125 14.06875,7.8125 Z M14.06875,19.6625 C11.5,19.6625 9.4,17.56875 9.4,14.99375 C9.4,12.41875 11.49375,10.325 14.06875,10.325 C16.64375,10.325 18.7375,12.41875 18.7375,14.99375 C18.7375,17.56875 16.6375,19.6625 14.06875,19.6625 L14.06875,19.6625 Z M23.21875,7.51875 C23.21875,8.45 22.46875,9.19375 21.54375,9.19375 C20.6125,9.19375 19.86875,8.44375 19.86875,7.51875 C19.86875,6.59375 20.61875,5.84375 21.54375,5.84375 C22.46875,5.84375 23.21875,6.59375 23.21875,7.51875 Z M27.975,9.21875 C27.86875,6.975 27.35625,4.9875 25.7125,3.35 C24.075,1.7125 22.0875,1.2 19.84375,1.0875 C17.53125,0.95625 10.6,0.95625 8.2875,1.0875 C6.05,1.19375 4.0625,1.70625 2.41875,3.34375 C0.775,4.98125 0.26875,6.96875 0.15625,9.2125 C0.025,11.525 0.025,18.45625 0.15625,20.76875 C0.2625,23.0125 0.775,25 2.41875,26.6375 C4.0625,28.275 6.04375,28.7875 8.2875,28.9 C10.6,29.03125 17.53125,29.03125 19.84375,28.9 C22.0875,28.79375 24.075,28.28125 25.7125,26.6375 C27.35,25 27.8625,23.0125 27.975,20.76875 C28.10625,18.45625 28.10625,11.53125 27.975,9.21875 Z M24.9875,23.25 C24.5,24.475 23.55625,25.41875 22.325,25.9125 C20.48125,26.64375 16.10625,26.475 14.06875,26.475 C12.03125,26.475 7.65,26.6375 5.8125,25.9125 C4.5875,25.425 3.64375,24.48125 3.15,23.25 C2.41875,21.40625 2.5875,17.03125 2.5875,14.99375 C2.5875,12.95625 2.425,8.575 3.15,6.7375 C3.6375,5.5125 4.58125,4.56875 5.8125,4.075 C7.65625,3.34375 12.03125,3.5125 14.06875,3.5125 C16.10625,3.5125 20.4875,3.35 22.325,4.075 C23.55,4.5625 24.49375,5.50625 24.9875,6.7375 C25.71875,8.58125 25.55,12.95625 25.55,14.99375 C25.55,17.03125 25.71875,21.4125 24.9875,23.25 Z" id="Icon-Shape"></path>
                </g>
                <rect id="ViewBox" x="0.0625" y="0" width="28" height="32"></rect>
            </g>
        </g>
    </g>
</svg>