<?xml version="1.0" encoding="UTF-8"?>
<svg width="28px" height="28px" viewBox="0 0 28 28" version="1.1" xmlns="http://www.w3.org/2000/svg" xmlns:xlink="http://www.w3.org/1999/xlink">
    <!-- Generator: Sketch 58 (84663) - https://sketch.com -->
    <title>fa-brands:medium</title>
    <desc>Created with Sketch.</desc>
    <g id="Page-2" stroke="none" stroke-width="1" fill="none" fill-rule="evenodd">
        <g id="iPhone-8" transform="translate(-297.000000, -203.000000)" fill-rule="nonzero">
            <g id="fa-brands:medium" transform="translate(297.000000, 201.000000)">
                <g id="Icon" fill="#FFFFFF">
                    <path d="M0,2 L0,30 L28,30 L28,2 L0,2 Z M23.2625,8.63125 L21.7625,10.06875 C21.63125,10.16875 21.56875,10.33125 21.59375,10.4875 L21.59375,21.06875 C21.56875,21.23125 21.63125,21.39375 21.7625,21.4875 L23.23125,22.925 L23.23125,23.24375 L15.85625,23.24375 L15.85625,22.9375 L17.375,21.4625 C17.525,21.3125 17.525,21.26875 17.525,21.04375 L17.525,12.4875 L13.3,23.2125 L12.73125,23.2125 L7.8125,12.4875 L7.8125,19.675 C7.76875,19.975 7.875,20.28125 8.0875,20.5 L10.0625,22.89375 L10.0625,23.2125 L4.45,23.2125 L4.45,22.89375 L6.425,20.5 C6.6375,20.28125 6.73125,19.975 6.68125,19.675 L6.68125,11.3625 C6.70625,11.13125 6.61875,10.90625 6.44375,10.75 L4.6875,8.63125 L4.6875,8.3125 L10.14375,8.3125 L14.35625,17.5625 L18.0625,8.31875 L23.2625,8.31875 L23.2625,8.63125 Z" id="Icon-Shape"></path>
                </g>
                <rect id="ViewBox" x="0" y="0" width="28" height="32"></rect>
            </g>
        </g>
    </g>
</svg>