<?xml version="1.0" encoding="UTF-8"?>
<svg width="28px" height="28px" viewBox="0 0 28 28" version="1.1" xmlns="http://www.w3.org/2000/svg" xmlns:xlink="http://www.w3.org/1999/xlink">
    <!-- Generator: Sketch 58 (84663) - https://sketch.com -->
    <title>fa-brands:facebook-square</title>
    <desc>Created with Sketch.</desc>
    <g id="Page-2" stroke="none" stroke-width="1" fill="none" fill-rule="evenodd">
        <g id="iPhone-8" transform="translate(-222.000000, -203.000000)" fill-rule="nonzero">
            <g id="fa-brands:facebook-square" transform="translate(222.000000, 201.000000)">
                <g id="Icon" fill="#FFFFFF">
                    <path d="M25,2 L3,2 C1.34314575,2 0,3.34314575 0,5 L0,27 C0,28.6568542 1.34314575,30 3,30 L11.578125,30 L11.578125,20.480625 L7.640625,20.480625 L7.640625,16 L11.578125,16 L11.578125,12.585 C11.578125,8.700625 13.890625,6.555 17.4325,6.555 C19.12875,6.555 20.9025,6.8575 20.9025,6.8575 L20.9025,10.67 L18.948125,10.67 C17.0225,10.67 16.421875,11.865 16.421875,13.090625 L16.421875,16 L20.720625,16 L20.033125,20.480625 L16.421875,20.480625 L16.421875,30 L25,30 C26.6568542,30 28,28.6568542 28,27 L28,5 C28,3.34314575 26.6568542,2 25,2 L25,2 Z" id="Icon-Path"></path>
                </g>
                <rect id="ViewBox" x="0" y="0" width="28" height="32"></rect>
            </g>
        </g>
    </g>
</svg>