<?xml version="1.0" encoding="UTF-8"?>
<svg width="22px" height="18px" viewBox="0 0 22 18" version="1.1" xmlns="http://www.w3.org/2000/svg" xmlns:xlink="http://www.w3.org/1999/xlink">
    <!-- Generator: Sketch 58 (84663) - https://sketch.com -->
    <title>foundation-mail</title>
    <desc>Created with Sketch.</desc>
    <g id="Page-1" stroke="none" stroke-width="1" fill="none" fill-rule="evenodd">
        <g id="iPhone-8" transform="translate(-434.000000, -184.000000)" fill-rule="nonzero">
            <g id="foundation-mail" transform="translate(431.000000, 179.000000)">
                <g id="Icon" fill="#222222">
                    <g id="Icon-Group" transform="translate(3.080000, 5.600000)">
                        <path d="M20.98432,0.05292 L0.85568,0.05292 C0.460503549,0.0533831582 0.140308581,0.373703398 0.14,0.76888 L0.14,2.2092 C0.14,2.27556 0.21196,2.35172 0.27076,2.38252 L10.85084,8.42576 C10.877941,8.44124819 10.9086666,8.44926774 10.93988,8.44900649 C10.9717848,8.44900649 11.0031237,8.44057646 11.0306,8.42436 L21.29092,2.3884 C21.3486,2.3562 21.50148,2.27108 21.55888,2.23188 C21.62832,2.18456 21.7,2.14172 21.7,2.05688 L21.7,0.7686 C21.6995371,0.37353274 21.3793873,0.0533828795 20.98432,0.05292 Z" id="Icon-Path"></path>
                        <path d="M21.61068,4.38088 C21.5546174,4.34890676 21.4857417,4.3493339 21.43008,4.382 L15.62372,7.79828 C15.5768512,7.82558977 15.5449578,7.87274442 15.5370577,7.92641093 C15.5291575,7.98007743 15.5461093,8.0344225 15.58312,8.07408 L21.39032,14.33404 C21.4239583,14.370588 21.4714084,14.3913157 21.52108,14.3911609 C21.6198309,14.3910058 21.6998458,14.3109909 21.7000013,14.21224 L21.7000013,4.53628 C21.7002483,4.47221055 21.6661665,4.41291448 21.61068,4.38088 L21.61068,4.38088 Z" id="Icon-Path"></path>
                        <path d="M13.95044,8.94544 C13.8936399,8.88358003 13.8013416,8.86981114 13.72896,8.9124 L11.4016,10.28188 C11.1241909,10.4421674 10.7828438,10.4444019 10.50336,10.28776 L8.45516,9.11764 C8.38730671,9.07899434 8.30224037,9.08873562 8.24488,9.14172 L0.46704,16.3562 C0.425694957,16.3948512 0.405039525,16.4507629 0.411326039,16.5070106 C0.417612553,16.5632584 0.450102028,16.6132303 0.49896,16.6418 C0.61992,16.71292 0.73668,16.7468004 0.8554,16.7468004 L20.77824,16.7468004 C20.8495109,16.746944 20.9139807,16.7045152 20.94204,16.639 C20.9705983,16.5738725 20.9576029,16.4979927 20.909,16.44608 L13.95044,8.94544 Z" id="Icon-Path"></path>
                        <path d="M6.53352,8.28828 C6.57529908,8.24965404 6.59621546,8.19345929 6.58985926,8.13691678 C6.58350306,8.08037427 6.55063219,8.03022599 6.50132,8.00184 L0.40684,4.52088 C0.351488361,4.48945355 0.28359624,4.48985288 0.228618105,4.52192826 C0.173639969,4.55400365 0.139881653,4.6129093 0.139997127,4.67656 L0.139997127,13.81016 C0.13959665,13.8814601 0.181695679,13.9461497 0.24705098,13.9746551 C0.31240628,14.0031605 0.388458736,13.9900039 0.44044,13.9412 L6.53352,8.28828 L6.53352,8.28828 Z" id="Icon-Path"></path>
                    </g>
                </g>
                <rect id="ViewBox" x="0" y="0" width="28" height="28"></rect>
            </g>
        </g>
    </g>
</svg>