<?xml version="1.0" encoding="UTF-8"?>
<svg width="28px" height="28px" viewBox="0 0 28 28" version="1.1" xmlns="http://www.w3.org/2000/svg" xmlns:xlink="http://www.w3.org/1999/xlink">
    <!-- Generator: Sketch 58 (84663) - https://sketch.com -->
    <title>fa-brands:twitter-square</title>
    <desc>Created with Sketch.</desc>
    <g id="Page-1" stroke="none" stroke-width="1" fill="none" fill-rule="evenodd">
        <g id="iPhone-8" transform="translate(-228.000000, -174.000000)" fill-rule="nonzero">
            <g id="fa-brands:twitter-square" transform="translate(228.000000, 172.000000)">
                <g id="Icon" fill="#222222">
                    <path d="M25,2 L3,2 C1.34375,2 0,3.34375 0,5 L0,27 C0,28.65625 1.34375,30 3,30 L25,30 C26.65625,30 28,28.65625 28,27 L28,5 C28,3.34375 26.65625,2 25,2 Z M21.94375,11.925 C21.95625,12.1 21.95625,12.28125 21.95625,12.45625 C21.95625,17.875 17.83125,24.11875 10.29375,24.11875 C7.96875,24.11875 5.8125,23.44375 4,22.28125 C4.33125,22.31875 4.65,22.33125 4.9875,22.33125 C6.90625,22.33125 8.66875,21.68125 10.075,20.58125 C8.275,20.54375 6.7625,19.3625 6.24375,17.7375 C6.875,17.83125 7.44375,17.83125 8.09375,17.6625 C6.21875,17.28125 4.8125,15.63125 4.8125,13.6375 L4.8125,13.5875 C5.35625,13.89375 5.99375,14.08125 6.6625,14.10625 C5.5205301,13.346648 4.83525462,12.0652767 4.8375,10.69375 C4.8375,9.93125 5.0375,9.23125 5.39375,8.625 C7.4125,11.1125 10.44375,12.7375 13.84375,12.9125 C13.2625,10.13125 15.34375,7.875 17.84375,7.875 C19.025,7.875 20.0875,8.36875 20.8375,9.16875 C21.7625,8.99375 22.65,8.65 23.4375,8.18125 C23.13125,9.13125 22.4875,9.93125 21.6375,10.4375 C22.4625,10.35 23.2625,10.11875 24,9.8 C23.44375,10.61875 22.74375,11.34375 21.94375,11.925 L21.94375,11.925 Z" id="Icon-Shape"></path>
                </g>
                <rect id="ViewBox" x="0" y="0" width="28" height="32"></rect>
            </g>
        </g>
    </g>
</svg>