<?xml version="1.0" encoding="UTF-8"?>
<svg width="28px" height="28px" viewBox="0 0 28 28" version="1.1" xmlns="http://www.w3.org/2000/svg" xmlns:xlink="http://www.w3.org/1999/xlink">
    <!-- Generator: Sketch 58 (84663) - https://sketch.com -->
    <title>fa-brands:github-square</title>
    <desc>Created with Sketch.</desc>
    <g id="Page-1" stroke="none" stroke-width="1" fill="none" fill-rule="evenodd">
        <g id="iPhone-8" transform="translate(-306.000000, -128.000000)" fill-rule="nonzero">
            <g id="fa-brands:github-square" transform="translate(306.000000, 126.000000)">
                <g id="Icon" fill="#222222">
                    <path d="M25,2 L3,2 C1.34375,2 0,3.34375 0,5 L0,27 C0,28.65625 1.34375,30 3,30 L25,30 C26.65625,30 28,28.65625 28,27 L28,5 C28,3.34375 26.65625,2 25,2 Z M17.33125,25.98125 C16.80625,26.075 16.6125,25.75 16.6125,25.48125 C16.6125,25.14375 16.625,23.41875 16.625,22.025 C16.625,21.05 16.3,20.43125 15.91875,20.10625 C18.23125,19.85 20.66875,19.53125 20.66875,15.5375 C20.66875,14.4 20.2625,13.83125 19.6,13.1 C19.70625,12.83125 20.0625,11.725 19.49375,10.2875 C18.625,10.01875 16.6375,11.40625 16.6375,11.40625 C15.8125,11.175 14.91875,11.05625 14.0375,11.05625 C13.15625,11.05625 12.2625,11.175 11.4375,11.40625 C11.4375,11.40625 9.45,10.01875 8.58125,10.2875 C8.0125,11.71875 8.3625,12.825 8.475,13.1 C7.8125,13.83125 7.5,14.4 7.5,15.5375 C7.5,19.5125 9.83125,19.85 12.14375,20.10625 C11.84375,20.375 11.575,20.8375 11.48125,21.5 C10.8875,21.76875 9.36875,22.23125 8.4625,20.63125 C7.89375,19.64375 6.86875,19.5625 6.86875,19.5625 C5.85625,19.55 6.8,20.2 6.8,20.2 C7.475,20.5125 7.95,21.7125 7.95,21.7125 C8.55625,23.56875 11.45625,22.94375 11.45625,22.94375 C11.45625,23.8125 11.46875,25.225 11.46875,25.48125 C11.46875,25.75 11.28125,26.075 10.75,25.98125 C6.625,24.6 3.7375,20.675 3.7375,16.0875 C3.7375,10.35 8.125,5.99375 13.8625,5.99375 C19.6,5.99375 24.2500104,10.35 24.2500104,16.0875 C24.25625,20.675 21.45625,24.60625 17.33125,25.98125 Z M11.2,22.1625 C11.08125,22.1875 10.96875,22.1375 10.95625,22.05625 C10.94375,21.9625 11.025,21.88125 11.14375,21.85625 C11.2625,21.84375 11.375,21.89375 11.3875,21.975 C11.40625,22.05625 11.325,22.1375 11.2,22.1625 Z M10.60625,22.10625 C10.60625,22.1875 10.5125,22.25625 10.3875,22.25625 C10.25,22.26875 10.15625,22.2 10.15625,22.10625 C10.15625,22.025 10.25,21.95625 10.375,21.95625 C10.49375,21.94375 10.60625,22.0125 10.60625,22.10625 Z M9.75,22.0375 C9.725,22.11875 9.6,22.15625 9.49375,22.11875 C9.375,22.09375 9.29375,22 9.31875,21.91875 C9.34375,21.8375 9.46875,21.8 9.575,21.825 C9.7,21.8625 9.78125,21.95625 9.75,22.0375 Z M8.98125,21.7 C8.925,21.76875 8.80625,21.75625 8.7125,21.6625 C8.61875,21.58125 8.59375,21.4625 8.65625,21.40625 C8.7125,21.3375 8.83125,21.35 8.925,21.44375 C9.00625,21.525 9.0375,21.65 8.98125,21.7 Z M8.4125,21.13125 C8.35625,21.16875 8.25,21.13125 8.18125,21.0375 C8.1125,20.94375 8.1125,20.8375 8.18125,20.79375 C8.25,20.7375 8.35625,20.78125 8.4125,20.875 C8.48125,20.96875 8.48125,21.08125 8.4125,21.13125 L8.4125,21.13125 Z M8.00625,20.525 C7.95,20.58125 7.85625,20.55 7.7875,20.4875 C7.71875,20.40625 7.70625,20.3125 7.7625,20.26875 C7.81875,20.2125 7.9125,20.24375 7.98125,20.30625 C8.05,20.3875 8.0625,20.48125 8.00625,20.525 Z M7.5875,20.0625 C7.5625,20.11875 7.48125,20.13125 7.4125,20.0875 C7.33125,20.05 7.29375,19.98125 7.31875,19.925 C7.34375,19.8875 7.4125,19.86875 7.49375,19.9 C7.575,19.94375 7.6125,20.0125 7.5875,20.0625 Z" id="Icon-Shape"></path>
                </g>
                <rect id="ViewBox" x="0" y="0" width="28" height="32"></rect>
            </g>
        </g>
    </g>
</svg>