<?xml version="1.0" encoding="UTF-8"?>
<svg width="28px" height="28px" viewBox="0 0 28 28" version="1.1" xmlns="http://www.w3.org/2000/svg" xmlns:xlink="http://www.w3.org/1999/xlink">
    <!-- Generator: Sketch 58 (84663) - https://sketch.com -->
    <title>fa-brands:linkedin</title>
    <desc>Created with Sketch.</desc>
    <g id="Page-1" stroke="none" stroke-width="1" fill="none" fill-rule="evenodd">
        <g id="iPhone-8" transform="translate(-167.000000, -96.000000)" fill-rule="nonzero">
            <g id="fa-brands:linkedin" transform="translate(167.000000, 94.000000)">
                <g id="Icon" fill="#222222">
                    <path d="M26,2 L1.99375,2 C0.89375,2 0,2.90625 0,4.01875 L0,27.98125 C0,29.09375 0.89375,30 1.99375,30 L26,30 C27.1,30 28,29.09375 28,27.98125 L28,4.01875 C28,2.90625 27.1,2 26,2 Z M8.4625,26 L4.3125,26 L4.3125,12.6375 L8.46875,12.6375 L8.46875,26 L8.4625,26 Z M6.3875,10.8125 C5.05625,10.8125 3.98125,9.73125 3.98125,8.40625 C3.98125,7.08125 5.05625,6 6.3875,6 C7.7125,6 8.79375,7.08125 8.79375,8.40625 C8.79375,9.7375 7.71875,10.8125 6.3875,10.8125 L6.3875,10.8125 Z M24.01875,26 L19.86875,26 L19.86875,19.5 C19.86875,17.95 19.8375,15.95625 17.7125,15.95625 C15.55,15.95625 15.21875,17.64375 15.21875,19.3875 L15.21875,26 L11.06875,26 L11.06875,12.6375 L15.05,12.6375 L15.05,14.4625 L15.10625,14.4625 C15.6625,13.4125 17.01875,12.30625 19.0375,12.30625 C23.2375,12.30625 24.01875,15.075 24.01875,18.675 L24.01875,26 L24.01875,26 Z" id="Icon-Shape"></path>
                </g>
                <rect id="ViewBox" x="0" y="0" width="28" height="32"></rect>
            </g>
        </g>
    </g>
</svg>