<?xml version="1.0" encoding="UTF-8"?>
<svg width="325px" height="130px" viewBox="0 0 325 130" version="1.1" xmlns="http://www.w3.org/2000/svg" xmlns:xlink="http://www.w3.org/1999/xlink">
    <style>.a{fill:#47B8B6;}.b{fill:#404C53;}</style>
    <defs>
        <path d="M314.423093,113.00256 L321.623431,123.719845 L321.669569,123.719845 L321.669569,113.00256 L324.075929,113.00256 L324.075929,128.088274 L321.80654,128.088274 L314.610526,117.372357 L314.561505,117.372357 L314.561505,128.088274 L312.15947,128.088274 L312.15947,113.00256 L314.423093,113.00256 Z M256.480661,113.00256 L262.263713,128.088274 L259.716056,128.088274 L258.483319,124.716898 L252.458045,124.716898 L251.225308,128.088274 L248.681977,128.088274 L254.469353,113.00256 L256.480661,113.00256 Z M180.163861,113.00256 L183.084621,124.685697 L187.055702,113.00256 L189.262818,113.00256 L193.334615,124.685697 L196.097106,113.00256 L198.786219,113.00256 L194.642482,128.088274 L192.166311,128.088274 L188.081565,116.461096 L184.021278,128.088274 L181.559495,128.088274 L177.372594,113.00256 L180.163861,113.00256 Z M127.476836,113.00256 L127.476836,128.088274 L125.061825,128.088274 L125.061825,113.00256 L127.476836,113.00256 Z M69.3830162,113.00256 L75.1660674,128.088274 L72.6198524,128.088274 L71.3871153,124.716898 L65.3604002,124.716898 L64.1276631,128.088274 L61.5857735,128.088274 L67.3717082,113.00256 L69.3830162,113.00256 Z M11.6900159,113.00256 L11.6900159,115.037695 L7.33146097,115.037695 L7.33146097,128.088274 L4.91644957,128.088274 L4.91644957,115.037695 L0.566545455,115.037695 L0.566545455,113.00256 L11.6900159,113.00256 Z M255.495913,116.094926 L255.454101,116.094926 L253.148667,122.687233 L257.791256,122.687233 L255.495913,116.094926 Z M68.3982683,116.094926 L68.3564562,116.094926 L66.0510214,122.687233 L70.6936105,122.687233 L68.3982683,116.094926 Z M54.9812485,81.4127914 C56.1449354,81.4127914 57.1040099,82.2771686 57.1869476,83.3606594 L57.1927636,83.5097057 L57.1947523,94.6523914 C57.1957023,95.7526647 56.2854454,96.6666052 55.143334,96.7439984 L54.9862182,96.7493057 L43.2408364,96.7493057 C42.0781001,96.7493057 41.1163388,95.8832032 41.0349054,94.8012127 L41.0293212,94.6523914 L41.0293212,83.5097057 C41.0293212,82.4076287 41.9405288,81.4953351 43.0835909,81.4180885 L43.2408364,81.4127914 L54.9812485,81.4127914 Z M128.314395,81.4127914 C129.476181,81.4127914 130.434263,82.2771686 130.520598,83.3606594 L130.526904,83.5097057 L130.526904,94.6523914 C130.526904,95.7526647 129.619334,96.6666052 128.474849,96.7439984 L128.317377,96.7493057 L116.572989,96.7493057 C115.409302,96.7493057 114.447499,95.8832032 114.366064,94.8012127 L114.36048,94.6523914 L114.36048,83.5097057 C114.36048,82.4076287 115.271688,81.4953351 116.41562,81.4180885 L116.572989,81.4127914 L128.314395,81.4127914 Z M190.727825,0.802937143 C204.074444,0.802937143 215.01871,6.46290857 221.547898,16.9729371 C226.471834,24.9770871 226.935092,28.6232085 226.943864,48.173473 L226.943995,48.7707943 C226.943995,70.3311086 225.807922,74.1081943 221.261644,80.8430229 C215.303971,89.7341657 204.788092,96.7386514 189.730904,96.7386514 L155.357498,96.7386514 L155.357498,0.802937143 L190.727825,0.802937143 Z M287.385648,0.80256 L324.177309,96.7392171 L307.984048,96.7392171 L300.171685,75.31656 L261.81457,75.31656 L254.002206,96.7392171 L237.80497,96.7392171 L274.603588,0.80256 L287.385648,0.80256 Z M15.9030303,0.803314286 L15.9030303,96.7390286 L0.566545455,96.7390286 L0.566545455,0.803314286 L15.9030303,0.803314286 Z M189.024213,14.5479086 L170.700941,14.5479086 L170.700941,82.9965086 L189.024213,82.9965086 C197.684407,82.9965086 203.795147,80.1698229 207.772892,74.64468 C211.112785,69.8964709 211.586833,67.2093375 211.604961,50.3921298 L211.604875,48.1926348 C211.585166,31.8793286 211.092464,27.7728891 207.059244,22.6329086 C202.371825,16.5637371 197.260989,14.5479086 189.024213,14.5479086 Z M281.138739,20.47056 L280.850497,20.47056 L266.218715,62.3833886 L295.764558,62.3833886 L281.138739,20.47056 Z M54.9812485,11.8568057 C56.1449354,11.8568057 57.1040099,12.7203203 57.1869476,13.8029109 L57.1927636,13.9518343 L57.1947523,25.0964057 C57.1957023,26.196679 56.2854454,27.1088942 55.143334,27.1861373 L54.9862182,27.1914343 L43.2408364,27.1914343 C42.0781001,27.1914343 41.1163388,26.3270571 41.0349054,25.2452166 L41.0293212,25.0964057 L41.0293212,13.9518343 C41.0293212,12.8506591 41.9405288,11.9392674 43.0835909,11.8620976 L43.2408364,11.8568057 L54.9812485,11.8568057 Z M128.314395,11.8568057 C129.476181,11.8568057 130.434263,12.7203203 130.520598,13.8029109 L130.526904,13.9518343 L130.526904,25.0964057 C130.526904,26.196679 129.619334,27.1088942 128.474849,27.1861373 L128.317377,27.1914343 L116.572989,27.1914343 C115.409302,27.1914343 114.447499,26.3270571 114.366064,25.2452166 L114.36048,25.0964057 L114.36048,13.9518343 C114.36048,12.8506591 115.271688,11.9392674 116.41562,11.8620976 L116.572989,11.8568057 L128.314395,11.8568057 Z" id="path-1"></path>
    </defs>
    <g id="Page-1" stroke="none" stroke-width="1" fill="none" fill-rule="evenodd">
        <g id="Android" transform="translate(-16.000000, -338.000000)">
            <g id="Logo/IxDATaiwan" transform="translate(16.000000, 338.000000)">
                <g id="Logo/IxDATaiwan-Light" transform="translate(0.000000, 0.942857)">
                    <g id="LOGO" transform="translate(0.000000, 0.450686)">
                        <g id="Group" transform="translate(0.000000, 0.351874)">
                            <g id="Color/DarkGrey" transform="translate(0.427394, 0.140297)">
                                <mask id="mask-2" fill="white">
                                    <use xlink:href="#path-1"></use>
                                </mask>
                                <use id="Mask" class="b" xlink:href="#path-1"></use>
                                <g mask="url(#mask-2)" class="b" id="Rectangle">
                                    <g transform="translate(-33.793939, -61.285714)">
                                        <rect x="0" y="0" width="412" height="211"></rect>
                                    </g>
                                </g>
                            </g>
                        </g>
                    </g>
                    <path d="M87.7961576,20.9281286 C86.9214909,21.7559571 85.4922061,21.7559571 84.6185333,20.9281286 L75.5041091,12.2802429 C74.6294424,11.4524143 74.6294424,10.0956429 75.5041091,9.26592857 L84.6185333,0.620871429 C85.4922061,-0.206957143 86.9214909,-0.206957143 87.7961576,0.620871429 L96.9115758,9.26592857 C97.7852485,10.0956429 97.7852485,11.4524143 96.9115758,12.2802429 L87.7961576,20.9281286 Z" id="Fill-15" class="a"></path>
                    <path d="M114.788768,95.5943057 L114.788768,84.4525629 C114.788768,83.2994486 115.783702,82.3547057 117.000284,82.3547057 L128.74169,82.3547057 C129.652138,82.3547057 130.438344,82.8864771 130.776284,83.6369914 C130.670926,83.3918486 130.522829,83.1476486 130.263411,82.9034486 L102.704453,56.75142 C101.832768,55.9217057 101.832768,54.5658771 102.704453,53.7361629 L130.051702,27.7811914 C130.121278,27.7161343 130.154078,27.6444771 130.214708,27.5756486 C129.821108,27.9141343 129.313205,28.13382 128.743678,28.13382 L117.000284,28.13382 C115.783702,28.13382 114.788768,27.19002 114.788768,26.0387914 L114.788768,14.8951629 C114.788768,14.3417057 115.027314,13.8419914 115.400041,13.4676771 C115.358296,13.5044486 115.312575,13.5176486 115.270829,13.5591343 L87.7903927,39.5895343 C86.9187079,40.4173629 85.4874352,40.4173629 84.6137624,39.5895343 L57.1213988,13.5770486 C57.0985382,13.5534771 57.0707079,13.5459343 57.0468533,13.5242486 C57.3917503,13.8957343 57.6173745,14.3671629 57.6203564,14.8951629 L57.6213503,26.0387914 C57.6223442,27.19002 56.6274109,28.13382 55.4138109,28.13382 L43.6684291,28.13382 C43.0929382,28.13382 42.5770836,27.9113057 42.1814958,27.5681057 C42.2013745,27.5850771 42.2073382,27.6048771 42.2252291,27.6227914 L69.7006958,53.7361629 C70.5743685,54.5658771 70.5743685,55.9217057 69.7006958,56.75142 L42.1685745,82.8695057 C41.9131321,83.1137057 41.7620533,83.3569629 41.65272,83.6077629 C41.9986109,82.87422 42.7699079,82.3547057 43.6684291,82.3547057 L55.4088412,82.3547057 C56.6244291,82.3547057 57.6173745,83.2994486 57.6203564,84.4525629 L57.6213503,95.5943057 C57.6223442,96.1694486 57.3738594,96.6927343 56.9752897,97.0717629 C57.0120655,97.0387629 57.052817,97.0283914 57.0915806,96.99162 L84.6137624,70.8999343 C85.4874352,70.0721057 86.9187079,70.0721057 87.7903927,70.8999343 L115.341399,97.0255629 C115.600817,97.2716486 115.858247,97.4130771 116.124623,97.5149057 C115.341399,97.18962 114.788768,96.45042 114.788768,95.5943057" id="Fill-17" class="a"></path>
                </g>
            </g>
        </g>
    </g>
</svg>
